<?xml version='1.0' encoding='utf-8'?>
<svg xmlns="http://www.w3.org/2000/svg" version="1.1" width="600px" height="976px" viewBox="0 0 600 976"> <g id="layer1"> <g> <g style="fill:rgb(255,255,255); fill-opacity:1.0; stroke-linejoin: miter"> <path d="M257.86914,334.48328C257.76398,334.74628,257.23804,334.904,256.6595,334.904C256.13354,334.904,254.6609,335.48254,253.45125,336.21887C252.18898,336.95526,250.76897,337.53375,250.29561,337.53375C249.87483,337.53375,249.03334,337.95447,248.45479,338.48047C247.92885,339.0064,247.03471,339.58496,246.5088,339.7953C245.98286,340.00574,245.19392,340.84717,244.66801,341.74127C244.19466,342.58282,243.6161,343.31915,243.40575,343.31915C243.14275,343.31915,242.98497,343.5821,242.98497,343.8451C242.98497,344.16064,242.77461,344.68658,242.45903,345.0548C238.67226,349.68304,236.67369,353.62762,236.67369,356.4677C236.67369,357.25665,236.46327,358.0456,236.25291,358.30847C234.93806,359.83374,234.30693,364.98798,234.4647,372.82452L234.56987,381.02917L228.41634,381.0818C222.631,381.187,222.15764,381.0818,219.89607,379.76703C213.00621,375.71722,211.06026,375.19122,202.22438,375.24384C195.86049,375.24384,190.18031,375.9276,188.44469,376.92688C187.97133,377.1372,186.34093,376.66394,184.18456,375.66467C182.23857,374.71796,179.81923,373.77124,178.81993,373.56085C177.18953,373.24524,174.08647,372.03564,171.35155,370.61554C170.8256,370.35254,169.77373,370.1422,168.9322,370.1422C168.1433,370.1422,167.24919,369.93182,166.93361,369.66895C165.1454,367.9333,142.89803,367.4073,137.27046,368.93256C131.59026,370.51038,128.17163,373.56085,126.85678,378.1892C125.17375,384.55304,125.06857,407.16858,126.75159,409.3249C127.01454,409.588,127.27753,410.58722,127.33014,411.48132C127.4879,413.00653,127.17235,413.4273,123.22777,416.32C118.17873,420.1068,114.497116,424.52478,111.551834,430.36267C108.34358,436.77917,107.607254,440.25043,107.607254,448.5077C107.607254,455.08203,107.71246,455.97607,109.23767,460.34143C111.49924,466.8631,114.18153,471.17584,119.12541,476.17224C124.069275,481.16876,128.27681,483.79852,135.00888,486.00745C137.69121,486.9016,139.90016,487.8482,139.90016,488.16376C139.95274,489.0053,141.95134,490.32013,144.37068,491.109C146.52705,491.79285,147.94707,492.31873,150.05086,493.16028C150.68199,493.42316,152.62798,494.15955,154.3636,494.79065C156.0992,495.4218,157.9926,496.21075,158.57112,496.57886C159.14967,496.94708,160.30672,497.4204,161.09569,497.6308C161.93718,497.84113,163.77797,498.94568,165.25063,500.10272C166.72325,501.25983,168.61665,502.36426,169.45815,502.52197C170.29967,502.6798,171.08858,503.04797,171.24635,503.25836C171.40416,503.52136,172.19307,503.7317,173.03456,503.7317C173.87608,503.7317,175.92726,504.31024,177.55766,505.0465C180.34517,506.25623,180.50294,506.4666,180.13478,507.7815C179.977,508.57037,178.87251,510.1482,177.71547,511.25262C176.61098,512.3572,175.66426,513.46173,175.66426,513.67206C175.66426,513.88245,175.19093,514.6713,174.61238,515.3024C172.08788,518.24774,170.35228,522.03455,170.03667,525.5058C169.87892,527.3991,169.56334,528.977,169.30037,528.977C169.09001,528.977,168.82701,529.97626,168.72182,531.1859C168.61665,533.02673,168.35368,533.50006,167.40697,533.6052C166.09212,533.8157,165.1454,536.0246,165.1454,539.02246C165.1454,541.7048,164.14613,546.3331,163.515,546.3331C163.25203,546.3331,163.04164,548.805,163.04164,551.8029C163.04164,554.90594,162.83128,557.4831,162.5157,557.6408C162.25273,557.79865,161.98976,558.5875,161.98976,559.3239C161.98976,560.42834,160.7275,563.37366,159.886,564.21515C158.83409,565.267,158.30815,567.37085,158.30815,570.7894C158.30815,573.1562,157.9926,575.52295,157.51924,576.68C157.0985,577.67926,156.73033,579.09937,156.73033,579.7831C156.73033,580.4668,156.51994,581.04535,156.20439,581.04535C155.94142,581.04535,155.67845,581.6239,155.67845,582.36017C155.67845,583.0965,155.46806,583.67505,155.25768,583.67505C154.99474,583.67505,154.57396,585.0425,154.2584,586.6729C153.62727,589.82855,153.04872,592.3531,151.99684,596.03467C149.94566,603.55566,148.6834,621.9111,149.94566,626.329C150.62938,628.74835,150.62938,631.95654,149.89308,632.8507C149.6827,633.11365,149.36714,634.53375,149.20934,636.00635C148.78859,639.8983,148.26265,642.0547,147.73671,642.0547C147.47374,642.0547,147.26335,642.42285,147.26335,642.8436C147.26335,643.79034,145.58034,647.52454,145.0544,647.73486C144.79143,647.84,144.63365,648.15564,144.63365,648.4186C144.63365,648.7342,144.1603,649.94385,143.58174,651.10095C143.00322,652.31055,142.52986,653.52026,142.52986,653.7832C142.52986,654.2566,142.16173,655.20325,139.68977,660.5679C138.95345,662.1983,138.32231,663.82874,138.32231,664.09174C138.32231,664.4072,138.11195,664.6702,137.7964,664.6702C137.5334,664.6702,137.27046,665.2488,137.27046,665.9851C137.27046,666.72144,137.06007,667.2999,136.74449,667.2999C136.48152,667.2999,136.11336,668.19403,135.903,669.2459C135.69261,670.3504,135.37706,671.4549,135.16667,671.77045C134.95628,672.03345,134.64072,672.87494,134.48296,673.61127C134.32516,674.3476,133.8518,676.3462,133.37846,678.02924C132.43176,681.4478,131.64287,686.0235,130.90654,692.0193C130.64355,694.17566,130.22281,697.5943,129.90724,699.64545C128.96056,706.3775,127.33014,728.41455,126.75159,741.45795C126.22565,753.6072,126.12047,754.3961,124.96338,755.9213C124.27966,756.7628,123.01738,758.9192,122.07068,760.6548C120.38768,763.86304,115.86456,768.281,114.234146,768.281C113.024475,768.281,109.92142,769.49066,109.92142,769.964C109.92142,770.5951,111.91998,770.49,112.28815,769.8588C112.65633,769.22766,114.65489,769.12256,114.65489,769.75366C114.65489,771.2789,109.974,773.3827,108.13321,772.699C107.55467,772.4885,107.29169,772.6463,107.29169,773.22485C107.29169,773.856,107.81764,774.0664,109.18509,774.0664L111.02588,774.0664L109.55325,776.11755C108.76433,777.22205,106.66055,779.9569,104.92494,782.2185C103.18935,784.48004,101.45372,786.8468,101.08557,787.5305C100.71741,788.1616,99.718124,788.84534,98.87662,789.0557C97.14099,789.42395,95.66835,791.0543,94.72165,793.6315C94.3535,794.5781,93.827545,795.78784,93.56459,796.26117C93.30162,796.7871,93.09123,797.68115,93.09123,798.25977C93.09123,798.83826,92.775665,799.78503,92.40752,800.41614C91.88156,801.3102,91.93416,801.57324,92.56529,802.0991C92.98605,802.4673,93.3542,803.0984,93.3542,803.51917C93.3542,804.6763,96.77284,805.14954,107.81764,805.46515C121.38696,805.8334,127.27753,804.78143,127.27753,801.9939C127.27753,800.6791,130.90654,799.8376,136.74449,799.8376C139.63719,799.8376,142.9506,799.522,144.10771,799.2064L146.15886,798.5753L146.15886,783.7963C146.15886,775.6968,146.26405,768.7018,146.47444,768.281C146.63222,767.75507,146.26405,766.9661,145.42256,766.17725C144.26549,765.12537,144.10771,764.4942,144.10771,761.49634C144.10771,759.1821,144.52846,756.86804,145.31737,754.60645C146.00108,752.7131,146.8426,749.873,147.21077,748.29517C147.57893,746.71735,148.05229,744.92914,148.31526,744.3506C148.52562,743.77203,149.36714,741.61566,150.20863,739.6171C150.99754,737.5659,151.83907,735.8303,152.04945,735.67255C152.20723,735.5148,153.25911,732.9376,154.3636,729.88715C155.46806,726.8367,156.67775,723.6285,157.04588,722.68176C157.46666,721.78766,157.78221,720.68317,157.78221,720.2624C157.78221,719.78906,158.04521,719.2631,158.30815,719.10535C158.62373,718.9476,158.83409,718.21124,158.83409,717.4749C158.83409,716.7912,159.04448,716.21265,159.30745,716.21265C159.57042,716.21265,159.93858,715.4763,160.14897,714.6348C160.35933,713.7407,160.67491,713.05695,160.88527,713.05695C161.41121,713.05695,165.93434,703.9582,166.67067,701.48627C168.35368,695.5431,169.09001,690.7044,169.61592,681.5004C170.19447,671.98083,171.45674,665.87994,173.98125,660.30493C175.19093,657.7278,175.61168,657.30707,176.82133,657.30707C177.61028,657.30707,178.55696,657.6226,178.92513,657.9908C179.29329,658.4115,180.81853,658.8848,182.23857,659.04266C183.7112,659.25305,184.97346,659.67377,185.02605,659.93677C185.13127,660.2523,186.02534,660.4627,187.02464,660.4627C188.02394,660.4627,188.81285,660.6731,188.81285,660.98865C188.81285,661.3042,190.86403,661.5145,193.8619,661.5145L198.91096,661.5145L200.96214,659.3056C202.48738,657.67523,203.01332,656.62335,203.01332,655.3611C203.01332,654.30914,203.43407,653.20465,204.0652,652.57355C204.64372,651.995,205.11708,651.2587,205.11708,650.9431C205.11708,649.73346,206.90529,644.737,208.5883,641.2132C209.5876,639.16205,210.37651,637.216,210.37651,636.90045C210.37651,636.5323,210.58687,635.8486,210.84987,635.32263C211.11284,634.84924,211.84914,633.2188,212.48027,631.7988C214.74184,626.6446,215.32039,625.4875,215.89891,624.6986C216.21446,624.27783,216.8456,623.0682,217.21376,622.06885C217.6345,621.0696,218.10786,620.12286,218.26567,619.9651C218.47603,619.8073,219.26494,617.9139,220.10646,615.75757C220.89537,613.6012,221.94728,611.07666,222.42061,610.23517C222.94655,609.34106,223.78807,607.34247,224.3666,605.76465C224.94514,604.029,226.26,602.03046,227.62746,600.6104C228.83711,599.34814,229.83638,598.0859,229.83638,597.8755C229.83638,597.2444,231.7824,596.66583,232.46614,597.0866C232.72908,597.2444,232.99208,597.61255,232.99208,597.8755C232.99208,598.1384,233.62321,599.0326,234.4647,599.8741C236.83144,602.39856,238.61967,604.9231,239.09303,606.39575C239.30339,606.9217,239.61891,607.34247,239.88191,607.34247C240.14488,607.34247,240.35527,607.71063,240.35527,608.1314C240.35527,608.5522,240.56563,608.9203,240.77602,608.9203C241.03899,608.9203,242.51161,610.9715,244.03688,613.5486C245.56209,616.0731,247.03471,618.1769,247.29771,618.28204C247.50807,618.38727,247.71849,618.808,247.71849,619.22876C247.71849,619.6495,247.92885,619.9651,248.1392,619.9651C248.4022,619.9651,249.03334,620.8592,249.61186,621.9111C250.13783,623.01556,250.76897,624.01483,250.92671,624.17267C251.55785,624.6986,255.08168,630.43134,255.08168,631.0099C255.08168,631.2728,255.29204,631.5358,255.5024,631.5358C255.7654,631.5358,256.39655,632.3774,256.9751,633.37665C257.50098,634.3759,258.13214,635.21747,258.28992,635.21747C258.5003,635.21747,258.81586,635.79596,258.97363,636.5323C259.18402,637.2686,259.5522,637.84717,259.81512,637.84717C260.13074,637.84717,260.34106,638.21533,260.34106,638.63605C260.34106,639.0568,260.60406,639.4249,260.86707,639.4249C261.18256,639.4249,261.393,639.79315,261.393,640.21387C261.393,640.63464,261.60333,641.00287,261.81372,641.00287C262.0241,641.00287,262.9182,642.15985,263.75977,643.63257C264.6538,645.05255,265.4953,646.26227,265.7583,646.26227C265.9687,646.26227,266.12646,646.63043,266.12646,647.05115C266.12646,647.4719,266.38947,647.84,266.6524,647.84C266.96796,647.84,267.17834,648.103,267.17834,648.4186C267.17834,649.15497,268.54578,650.4697,269.28217,650.4697C269.59766,650.4697,270.80737,651.4691,271.96442,652.6787L274.06818,654.9403L278.69653,654.83514L283.32477,654.67737L283.95593,656.93884C284.3241,658.14856,284.85004,659.9893,285.1656,660.98865C285.53375,662.0405,285.84937,668.0363,285.95453,674.61053C286.0597,681.0271,286.27008,686.60205,286.48047,686.9702C286.69086,687.28577,287.05902,689.6525,287.26935,692.2822C287.79535,698.8039,288.53162,704.5893,289.53094,710.1643C290.688,716.68604,291.37177,724.47,291.73987,734.1999L292.00287,742.4046L290.688,743.2987C289.42572,744.08765,284.21893,750.7671,283.64038,752.23975C283.53516,752.6079,282.74628,753.18646,281.95734,753.502C281.221,753.8701,279.85358,754.7117,279.01202,755.448C277.48682,756.7628,277.53943,757.1836,279.53802,757.9199C279.85358,758.02515,279.64325,758.60364,279.16986,759.1821C278.64392,759.76074,278.22314,760.39185,278.22314,760.60223C278.22314,761.28595,274.48895,765.3883,273.85785,765.4409C272.33258,765.4935,270.91254,766.33496,270.597,767.28174C270.3866,767.8076,269.91327,768.281,269.43988,768.281C267.91467,768.281,265.33752,769.8588,264.49603,771.3314C263.91748,772.38336,262.81305,773.0671,260.02557,773.9612C258.02692,774.5923,255.66017,775.1183,254.71352,775.1183C253.81938,775.1183,252.8727,775.3286,252.71492,775.64417C252.55711,775.90717,251.55785,776.17017,250.55855,776.17017C249.55928,776.17017,248.77034,776.4331,248.77034,776.74866C248.77034,777.1168,248.19179,777.22205,247.40291,777.0643C246.56142,776.90643,245.93028,777.0643,245.77245,777.5376C245.61467,777.9584,244.82579,778.2739,243.98424,778.2739C241.77531,778.2739,240.35527,780.06213,240.35527,783.0074C240.35527,785.16376,240.56563,785.6371,242.8798,787.84607C244.24724,789.2135,246.351,790.68616,247.56065,791.10693C248.71776,791.52765,250.97932,792.47437,252.55711,793.1581C257.13287,795.31445,262.4449,795.78784,272.4378,795.1041C277.22388,794.7359,281.37878,794.2626,281.64178,794.0522C281.95734,793.78925,283.37744,793.1581,284.79742,792.63214C287.11163,791.73804,287.74274,791.6855,289.26794,792.264C290.58282,792.7373,295.73706,792.94775,307.2552,792.94775L323.40167,793.00037L324.55872,789.2135C325.97876,784.32227,325.6632,781.0088,323.19128,775.64417C322.19202,773.4878,321.35046,770.9633,321.40308,770.12177C321.40308,768.2284,320.92975,765.2831,320.29858,763.8105C319.35187,761.49634,319.29932,760.8126,319.98303,759.4452C320.7193,757.97253,321.0349,755.9739,320.92975,753.4494C320.7719,751.39825,318.6156,750.87225,316.87994,752.50275C315.7229,753.6072,315.56512,753.6072,315.2495,752.81824C315.03918,752.2923,315.03918,747.9796,315.2495,743.1409C315.61768,734.30505,315.7229,732.51685,316.617,727.25745C316.87994,725.6796,317.30072,722.68176,317.61627,720.68317C317.9319,718.632,318.3,716.1075,318.45782,715.003C318.6156,713.9511,318.98376,713.05695,319.2467,713.05695C319.56226,713.05695,319.77264,713.31995,319.77264,713.58295C319.77264,713.8985,320.3512,715.003,321.0349,716.1075C321.71863,717.2119,322.71796,719.6313,323.19128,721.52466C323.6646,723.3655,324.29578,725.364,324.5061,725.94257C324.7691,726.5211,325.34766,728.6249,325.82098,730.6761C326.66248,734.56805,327.3988,737.19775,328.5033,740.66895C329.71295,744.6136,331.55377,754.08057,332.2375,760.0237C332.44788,761.96967,332.34265,762.4956,331.76416,762.4956C330.2915,762.4956,329.23962,764.44165,328.66107,768.0706C328.39813,770.0692,327.92474,773.1196,327.6618,774.8553C327.45142,776.59094,327.13586,780.0095,327.08325,782.48145C326.9781,784.95337,326.7151,787.21497,326.5047,787.5305C325.97876,788.26685,325.71576,797.52344,326.18915,797.9968C327.0307,798.83826,331.08038,799.31165,338.18066,799.31165C346.70093,799.4168,355.90497,800.048,360.27026,800.88947C361.84808,801.205,364.47784,801.67834,366.0556,801.88873C367.63348,802.15173,370.0528,802.62506,371.36768,802.9407C374.6811,803.67694,394.141,803.7821,396.87585,803.04584C398.82184,802.5199,401.29376,800.2057,401.29376,798.89087C401.29376,798.6279,402.03015,797.4182,402.87164,796.26117C404.50208,793.947,404.87018,791.73804,403.7657,790.318C402.9242,789.2661,401.29376,788.5824,399.76855,788.74023C399.08484,788.84534,398.3485,788.5824,398.0855,788.21423C397.6648,787.5305,396.6129,787.10974,388.72375,784.32227C386.56738,783.58594,384.35846,782.53406,383.83252,781.95557C383.30652,781.37695,382.6228,780.9036,382.3073,780.9036C381.30798,780.9036,377.73157,778.1687,377.46863,777.16943C377.3108,776.59094,376.31152,775.802,375.20703,775.3286C374.10254,774.8553,372.78772,773.90857,372.20917,773.22485C371.68323,772.54114,369.94757,771.38403,368.42236,770.6477C366.8971,769.9114,365.2141,768.6492,364.68817,767.8602C363.26813,765.70386,362.4792,765.07275,361.53253,765.2306C360.58582,765.3883,360.1651,764.8098,359.21838,761.7067C358.85022,760.5497,357.58795,758.551,356.32568,757.2362C354.90564,755.71094,353.9063,754.02795,353.4856,752.50275C352.8545,750.03076,352.95966,732.83246,353.69598,707.9553C353.95892,699.3299,353.9063,694.0179,353.5382,691.3881C353.2226,689.28436,352.8545,685.5502,352.80188,683.07825C352.69666,679.1863,352.80188,678.6077,353.59076,678.44995C354.06415,678.3447,354.6427,678.6603,354.80048,679.0811C354.95825,679.55444,355.69452,679.9226,356.37823,679.9226C357.062,679.9226,357.6405,680.133,357.6405,680.44855C357.6405,680.7115,358.16644,680.9745,358.85022,680.9745C359.48132,680.9745,360.42804,681.4478,360.95398,682.02637C361.84808,683.07825,364.21484,683.4464,365.31934,682.6575C365.63483,682.44714,366.0556,681.7634,366.266,681.07965C366.47638,680.44855,366.8971,679.9226,367.1601,679.9226C367.42303,679.9226,367.63348,679.607,367.63348,679.29144C367.63348,678.44995,371.15723,672.71716,372.47217,671.40234C373.68182,670.1926,376.04852,665.3014,376.04852,664.0391C376.04852,663.5132,376.2589,663.09247,376.5219,663.09247C376.7849,663.09247,377.153,662.5139,377.3108,661.7775C377.52118,661.04126,377.88934,660.4627,378.15234,660.4627C378.4679,660.4627,378.67828,660.09454,378.67828,659.67377C378.67828,659.25305,378.8886,658.8848,379.1516,658.8848C379.4146,658.8848,379.7827,658.30634,379.94055,657.57007C380.15088,656.8337,380.67682,655.8344,381.20282,655.3084C381.67615,654.78253,382.6228,653.3624,383.30652,652.1002C385.3051,648.2608,386.25183,646.5778,386.93555,645.89404C387.25116,645.5259,387.8297,644.5266,388.25043,643.63257C388.6186,642.791,389.09192,642.0547,389.3023,642.0547C389.56525,642.0547,389.72308,641.73914,389.72308,641.31836C389.72308,640.89764,390.4594,639.31976,391.40607,637.84717C392.8261,635.53296,393.19427,635.27,393.7202,635.95374C394.03577,636.4271,394.5091,636.7952,394.71954,636.7952C394.92987,636.7952,395.6662,637.3738,396.3499,638.11017C397.0337,638.84644,397.82257,639.4249,398.0855,639.4249C398.40112,639.4249,399.19,640.0035,399.92633,640.73987C400.66266,641.47614,401.4516,642.0547,401.71454,642.0547C402.9768,642.0547,404.97534,644.5266,404.97534,646.10443C404.97534,647.05115,405.23834,647.94525,405.50134,648.103C405.8169,648.2608,406.02728,648.89197,406.02728,649.47046C406.02728,649.99646,406.18506,650.4697,406.44806,650.4697C406.81616,650.4697,407.76288,652.04767,408.4466,653.73065C408.60437,654.2566,408.97253,654.67737,409.23553,654.67737C409.49854,654.67737,409.70886,654.9403,409.70886,655.20325C409.70886,655.51886,410.18225,656.7811,410.81335,657.9908C411.44452,659.3056,411.97046,661.5145,412.07562,663.56573C412.12823,665.40656,412.44373,667.037,412.70673,667.2474C413.54822,667.8259,414.3897,670.6134,414.70532,673.97943C414.9157,675.82025,415.28387,677.29285,415.5468,677.29285C415.8098,677.29285,416.0202,678.44995,416.0202,679.9226C416.0202,681.34265,416.28314,682.5523,416.54614,682.5523C416.8617,682.5523,417.07208,682.81525,417.07208,683.1834C417.07208,683.49896,417.5454,684.8139,418.17657,686.0761L419.281,688.33765L424.01453,688.33765C427.48572,688.33765,428.90576,688.1273,429.4843,687.54877C429.9577,687.128,430.85175,686.7598,431.58807,686.7598C432.27185,686.7598,432.8504,686.5495,432.8504,686.2339C432.8504,685.97095,434.06,685.6028,435.4801,685.3924C436.9527,685.182,438.1098,684.86646,438.1098,684.60345C438.1098,684.3405,438.47797,684.1301,438.89868,684.1301C439.31946,684.1301,439.68762,683.91974,439.68762,683.6568C439.68762,683.3412,440.7395,682.9731,442.00177,682.81525C443.31665,682.6049,444.4737,682.13153,444.63147,681.7108C445.0522,680.5537,447.3664,680.8167,448.2079,682.13153C448.99683,683.3412,449.20715,683.97235,450.41687,689.6525C450.8376,691.3881,451.46875,693.86005,451.94208,695.1749C452.36285,696.48975,452.99396,698.6987,453.36212,700.1714C454.25623,703.8004,456.57037,710.1117,457.14893,710.3221C457.35925,710.42725,457.5697,711.11096,457.5697,711.7947C457.5697,712.47845,457.78003,713.05695,458.04303,713.05695C458.30597,713.05695,458.6742,713.6881,458.83197,714.42444C459.0423,715.16077,459.67346,716.26526,460.25195,716.89636C460.8305,717.5275,461.40906,718.57935,461.56683,719.2106C461.77722,719.8943,462.09277,720.42017,462.30316,720.42017C462.51355,720.42017,463.24988,721.52466,463.88098,722.89215C464.51215,724.3122,465.19586,725.52185,465.4062,725.6796C465.61664,725.8374,466.51068,727.52045,467.4574,729.519C468.40405,731.46497,469.40338,733.04285,469.719,733.04285C469.98193,733.04285,470.19232,733.62134,470.19232,734.35767C470.19232,735.094,470.4027,735.67255,470.61304,735.67255C470.87604,735.67255,471.34937,736.51404,471.77014,737.5133C472.19092,738.51263,472.66425,739.3541,472.92725,739.3541C473.13757,739.3541,473.34796,739.7223,473.34796,740.14307C473.34796,740.5638,473.8213,741.82605,474.39984,742.8779C474.9784,743.9824,475.45172,745.40247,475.45172,746.0336C475.45172,746.71735,475.6095,747.2433,475.8725,747.2433C476.0829,747.2433,476.66144,748.1373,477.13477,749.29443C477.6081,750.3989,478.34442,751.6612,478.7126,752.02936C479.13336,752.45013,479.97485,754.1858,480.60596,755.9213C481.71045,758.8666,481.76306,759.7081,481.55267,769.8588C481.3423,779.9569,481.23712,781.0088,479.71185,786.05786C478.87036,789.0032,477.76593,794.42035,477.23993,798.15454C476.714,801.8362,476.0829,804.9918,475.8725,805.14954C475.34656,805.51776,474.505,810.8824,474.82062,811.8291C475.13617,812.82837,477.71332,813.93286,480.55334,814.3536C482.02606,814.51135,488.02173,814.77435,493.91235,814.8269C499.80286,814.9321,505.2201,815.03735,505.95642,815.1425C508.06018,815.3003,511.74182,814.09064,511.74182,813.19653C511.74182,812.77576,512.42554,812.3024,513.267,812.14465C515.05524,811.7765,515.94934,810.0409,515.8968,807.2008C515.8442,806.2015,516.00195,801.205,516.2123,796.1034C516.68567,785.7423,516.5279,784.74304,513.4774,777.01166C511.95215,773.17224,511.0055,771.5945,508.63873,769.1751C503.4319,763.8105,499.7503,756.39465,498.43542,748.8211C496.2265,736.1985,495.9109,733.72656,495.64795,728.3093C495.4901,725.57446,495.122,723.1551,494.8064,722.9973C494.54346,722.787,494.07013,721.05133,493.80713,719.05273C493.5442,717.05414,493.1234,714.1089,492.8604,712.53107C492.59747,710.9532,492.33447,708.5339,492.33447,707.11383C492.28192,705.7464,492.07153,704.6419,491.80853,704.6419C491.5456,704.6419,491.23004,704.0108,491.0722,703.22186C490.91443,702.3804,490.4937,700.6973,490.17816,699.38245C489.86255,698.0676,489.44183,696.2268,489.284,695.28015C489.12622,694.386,488.81073,693.5971,488.54773,693.5971C488.28473,693.5971,488.07434,693.07117,488.07434,692.38745C488.07434,691.7563,487.7588,690.7044,487.338,690.12585C486.9173,689.5473,486.44397,688.1799,486.23352,687.128C486.0232,686.0761,485.65503,685.182,485.44464,685.182C485.1817,685.182,484.76093,684.3931,484.4453,683.4464C484.0772,682.44714,483.44604,681.2374,482.9201,680.65894C482.44678,680.133,481.4475,678.39734,480.71112,676.92474C479.97485,675.39954,479.13336,674.1372,478.87036,674.1372C478.5548,674.1372,477.8711,673.2431,477.29254,672.1386C476.714,671.08673,475.8199,669.82446,475.34656,669.35114C474.29468,668.4044,474.0843,666.51105,474.92578,665.9851C475.55695,665.61694,475.6621,654.67737,475.03094,654.67737C474.82062,654.67737,474.29468,653.7832,473.8739,652.7314C473.13757,650.62756,470.5605,647.84,469.35083,647.84C467.82556,647.84,467.40485,644.15845,468.24634,638.0575C469.66632,627.85425,468.82483,576.15405,467.03662,566.84485C466.77368,565.31964,466.51068,562.68994,466.51068,561.0069C466.51068,559.3239,466.14258,556.9571,465.6692,555.80005C465.14325,554.4852,464.93286,553.0126,465.14325,552.01324C465.30103,551.11914,465.2484,550.1199,464.98547,549.8043C464.72247,549.4887,464.40692,548.3843,464.24915,547.38495C463.24988,541.44183,462.8291,539.4433,461.77722,536.86615C461.14612,535.2883,460.40973,533.5527,460.1468,533.07935C459.88385,532.55334,459.67346,531.65924,459.67346,531.13336C459.67346,530.5548,459.46307,529.92365,459.14746,529.7659C458.88452,529.6081,458.62152,528.87177,458.62152,528.1881C458.62152,527.50433,458.88452,526.76807,459.14746,526.6102C459.46307,526.4525,459.67346,525.61096,459.67346,524.7694C459.67346,523.928,459.46307,523.0864,459.14746,522.92865C458.88452,522.7709,458.62152,522.1397,458.62152,521.61383C458.62152,520.4041,452.8888,510.04303,452.25763,510.04303C451.9947,510.04303,451.7843,509.72748,451.7843,509.30664C451.7843,508.9386,451.41614,508.25482,450.8902,507.88666C448.8916,506.2036,447.6294,501.94348,447.31378,495.78998C446.893,487.6905,445.99896,479.3806,445.47296,478.7494C444.5263,477.59235,444.36847,474.8048,445.1048,473.38483C446.84045,470.12396,447.31378,467.1787,447.26117,459.8155L447.26117,452.45227L444.84186,448.0869C443.31665,445.40466,440.58173,441.7757,437.6364,438.56732C433.2185,433.7813,432.69257,433.36047,429.58948,432.4665C427.74872,431.9405,425.43457,430.7309,424.33008,429.88934C420.75366,426.83893,417.86096,424.99805,415.23126,424.10394C413.81122,423.578,412.12823,422.9995,411.54968,422.7365C409.49854,421.89496,404.81763,420.6328,403.8709,420.6328C403.34497,420.6328,401.34637,419.79114,399.5056,418.79187C396.98102,417.4771,395.40326,416.95117,393.6676,416.95117C392.08978,416.95117,390.93274,416.63556,390.24896,416.00446C389.2497,415.1103,387.88226,410.42944,388.4082,409.6405C388.51343,409.37756,388.93414,406.85303,389.2497,404.01294C389.56525,401.12024,390.03864,398.5957,390.30164,398.2801C390.56458,398.0172,390.7749,397.0705,390.7749,396.1764C390.7749,395.2823,391.0379,394.28302,391.40607,393.91486C392.30017,393.0207,392.30017,381.9759,391.35345,379.6092C390.1438,376.45355,389.5127,375.19122,387.67188,372.5089C385.19995,368.93256,382.41248,366.03986,380.5191,365.0406C379.67755,364.56726,378.83606,364.04132,378.67828,363.88354C378.2049,363.305,374.78625,361.8849,372.36694,361.20117C371.05206,360.833,369.47424,360.35974,368.79053,360.09668C365.6875,358.88702,361.58514,359.72858,354.22192,363.042C342.4934,368.30145,336.60278,372.82452,333.76276,378.8203C331.4486,383.7115,331.396,383.81677,331.08038,388.0243C330.60706,395.22968,330.92267,398.43793,332.18488,398.91125C333.23682,399.27948,333.02637,399.91064,329.55518,407.58936C328.8189,409.2198,328.18768,410.95544,328.18768,411.4287C328.18768,412.69104,329.187,414.3214,329.97595,414.3214C331.396,414.3214,331.86932,415.58374,331.02783,417.2141C330.39667,418.4237,330.34412,419.00226,330.81744,419.89642C331.1856,420.47498,331.34338,422.15796,331.23816,423.578L331.08038,426.1551L327.0307,428.15375C324.7165,429.3108,321.66608,431.36194,320.03558,432.93976C316.87994,435.93774,316.45917,435.93774,314.98657,433.0976C314.6184,432.51904,314.14508,431.73016,313.88208,431.46716C312.98798,430.41522,309.77972,425.26105,309.77972,424.89294C309.77972,424.10394,303.20544,418.21338,299.83942,416.00446C297.94598,414.79474,296.263,413.58502,296.10522,413.3747C295.6319,412.7436,292.4762,410.63977,292.00287,410.63977C291.79248,410.63977,290.89838,409.90344,290.00427,409.00946C289.05756,408.01007,288.11084,407.53674,287.53235,407.69458C286.7434,407.9049,286.63824,407.58936,286.7434,405.85376C286.79602,404.69666,287.05902,403.59222,287.26935,403.48694C287.47974,403.32922,287.69012,402.69806,287.69012,402.06696C287.69012,401.43585,288.16345,400.17352,288.742,399.3321C290.688,396.49194,291.37177,394.28302,291.37177,390.86438C291.37177,389.07617,291.6347,387.39313,291.89764,387.2353C292.21326,387.07758,292.42358,386.49902,292.42358,386.0257C292.42358,385.02643,294.15924,383.29077,295.10596,383.29077C296.0526,383.29077,297.1571,381.81818,296.8415,380.97662C296.68372,380.5033,296.0,380.1352,295.3689,380.1352C294.58002,380.1352,294.4748,379.97736,294.94812,379.66174C295.47406,379.34625,295.57922,378.34692,295.31628,375.5594C295.05334,373.0349,295.10596,371.71997,295.52667,371.50964C295.84222,371.29926,296.10522,370.7207,296.10522,370.24744C296.10522,369.774,296.68372,368.82727,297.3675,368.19623C299.05048,366.56586,300.83868,362.67383,300.83868,360.51746C300.83868,359.30774,300.4179,358.41376,299.41864,357.46704C296.78894,355.10022,295.05334,352.83875,295.05334,351.7342C295.05334,351.15564,294.2644,349.7882,293.31775,348.7364C292.31842,347.63184,291.10876,346.21185,290.5302,345.52808C288.00568,342.425,285.69153,340.37384,283.8507,339.5323C282.74628,339.0064,281.221,338.16486,280.5373,337.5863C279.80096,337.00775,278.85425,336.69226,278.43353,336.84998C278.01276,337.00775,277.32904,336.84998,276.90826,336.48187C276.48755,336.16632,275.27783,335.79816,274.1734,335.7456C273.0689,335.693,271.4911,335.27216,270.597,334.85144C268.91394,334.06256,258.34253,333.79956,257.86914,334.48328 Z M161.20085,398.2801C165.72395,401.43585,169.30037,402.90845,177.24211,404.85437C179.76665,405.4856,185.07866,406.9582,186.91948,407.53674C187.76097,407.79974,189.18098,408.01007,190.1277,408.01007C192.9152,408.01007,194.49303,410.58722,196.70198,418.529C197.07014,419.8438,197.49092,421.36908,197.75386,421.94757C197.96425,422.52612,197.96425,423.47278,197.70128,424.05133C197.49092,424.62982,197.28053,425.9973,197.28053,427.04926C197.22795,428.10107,196.96498,429.15308,196.6494,429.3634C196.01826,429.73163,196.17607,433.88647,197.22795,444.5631C197.49092,447.4558,197.91167,452.03156,198.06944,454.7138L198.4376,459.5525L195.86049,464.70673C194.44044,467.49426,193.17818,469.91357,193.0204,470.0714C192.8626,470.22913,192.07368,472.33295,191.2322,474.8048C189.60176,479.5384,188.49727,481.53693,189.18098,478.4864C189.96992,474.9101,189.65434,465.23273,188.70766,463.23413C188.02394,461.81403,187.81355,459.86804,187.81355,454.87158C187.76097,438.25183,182.39635,425.524,172.03526,417.1089C166.35509,412.5332,158.25557,409.16718,151.62868,408.6938C147.053,408.32562,147.10558,408.58862,149.47234,401.1728C151.31313,395.44012,151.41832,395.2823,155.67845,395.80823C157.30888,395.966,159.04448,396.75494,161.20085,398.2801 Z M336.44507,478.69678C337.70728,480.0642,338.7066,481.48438,338.7066,481.7473C338.7066,482.0103,339.96887,484.21924,341.5467,486.6385C343.1245,489.0053,344.75494,491.74017,345.22827,492.73956C345.70166,493.73883,347.01648,495.6848,348.17358,497.1574C349.27808,498.5775,351.22406,501.41754,352.43372,503.4687C353.64337,505.46735,354.80048,507.2555,354.95825,507.41333C356.43085,508.62305,356.90424,510.72675,357.0094,516.6173C357.11462,520.08856,357.37756,523.87537,357.6405,525.0324C358.32428,527.8725,358.32428,536.1824,357.6405,536.60315C357.37756,536.7609,357.11462,537.70764,357.11462,538.65436C357.11462,540.2322,356.43085,541.65216,353.38037,546.80646C352.06555,549.0154,349.22546,551.5925,348.17358,551.5925C347.64764,551.5925,346.8587,551.9081,346.49054,552.32886C346.06982,552.69696,345.22827,553.17035,344.64972,553.38074C344.01862,553.5911,343.3349,554.2222,343.17712,554.8008C342.96674,555.3267,342.65118,555.80005,342.4408,555.80005C342.2304,555.80005,341.70447,556.74677,341.3363,557.9038C340.81036,559.53424,340.17926,560.1654,338.49622,561.0069C335.60358,562.3743,334.39386,563.58405,333.23682,566.3715C331.50116,570.5264,331.08038,571.2102,329.3974,572.8406C328.45068,573.73474,327.6618,574.9444,327.6618,575.52295C327.6618,576.10144,326.45215,577.88965,325.03204,579.46747C323.55945,581.04535,322.40234,582.6231,322.40234,582.99133C322.40234,583.3595,322.19202,583.67505,321.8764,583.67505C321.61346,583.67505,321.35046,584.0432,321.35046,584.4639C321.35046,584.8847,321.1927,585.2528,320.92975,585.2528C320.7193,585.2528,319.98303,586.1996,319.2467,587.3566C318.51038,588.51373,317.7741,589.46045,317.61627,589.46045C317.40588,589.46045,316.93256,588.8293,316.51178,587.9878C316.14362,587.19885,314.67096,584.8847,313.30353,582.78094C311.9361,580.72974,310.8316,578.6786,310.8316,578.2578C310.8316,576.73254,308.04413,571.8939,298.0512,556.1156C292.58142,547.43756,287.63757,539.6536,287.11163,538.9173C285.06042,535.97205,285.0078,535.0779,286.79602,533.02673C287.74274,532.02747,288.9524,530.60736,289.53094,529.8711C290.1095,529.13477,292.89697,526.0843,295.73706,523.0864C301.20685,517.19586,303.67883,513.88245,305.3092,510.04303C305.88776,508.72815,306.4663,507.57104,306.67664,507.41333C307.15002,506.9926,310.8316,499.9975,310.8316,499.41895C310.8316,498.52484,313.61914,492.9499,314.30286,492.52917C314.67096,492.31873,315.5125,491.26685,316.14362,490.1624C317.61627,487.6905,323.08606,481.3791,325.55798,479.27533C326.5573,478.38135,328.45068,476.69824,329.71295,475.5412L332.0797,473.33228L333.1316,474.75226C333.71014,475.48865,335.1828,477.2768,336.44507,478.69678 Z M188.65508,482.27325C188.49727,482.69403,188.3395,482.5362,188.3395,481.95764C188.28691,481.3791,188.44469,481.0636,188.6025,481.27393C188.76027,481.43176,188.81285,481.9051,188.65508,482.27325 Z"/> </g> <g style="fill:rgb(0,0,0); fill-opacity:1.0; stroke-linejoin: miter"> <path d="M148.89378,628.1698C148.89378,628.74835,149.05156,628.9061,149.20934,628.48535C149.36714,628.11725,149.31453,627.64386,149.15675,627.4861C148.99898,627.2757,148.8412,627.59125,148.89378,628.1698 Z"/> </g> </g> </g> </svg>