<?xml version="1.0" encoding="UTF-8" standalone="no"?>
<!DOCTYPE svg PUBLIC "-//W3C//DTD SVG 1.1//EN" "http://www.w3.org/Graphics/SVG/1.1/DTD/svg11.dtd">
<svg width="100%" height="100%" viewBox="0 0 600 600" version="1.1" xmlns="http://www.w3.org/2000/svg" xmlns:xlink="http://www.w3.org/1999/xlink" xml:space="preserve" xmlns:serif="http://www.serif.com/" style="fill-rule:evenodd;clip-rule:evenodd;stroke-linejoin:round;stroke-miterlimit:2;">
    <g transform="matrix(5.62344,0,0,5.62344,-1106.88,-2851.34)">
        <g id="layer1">
            <g>
                <path d="M251.618,567.331L251.545,567.374C251.575,567.353 251.599,567.338 251.616,567.331L251.618,567.331ZM282.209,509.592C281.903,509.592 281.625,509.605 281.456,509.633C281.312,509.651 281.15,509.714 281.106,509.758C281.052,509.803 280.89,509.839 280.728,509.839C280.576,509.839 280.288,509.902 280.1,509.983C279.435,510.244 278.285,510.836 278.177,510.971C278.114,511.043 277.908,511.187 277.719,511.294C277.522,511.402 277.369,511.519 277.369,511.564C277.369,511.6 277.306,511.636 277.234,511.636C277.162,511.636 277.1,511.681 277.1,511.726C277.1,511.779 277.001,511.914 276.875,512.031C276.749,512.148 276.65,512.3 276.65,512.381C276.65,512.453 276.614,512.534 276.57,512.552C276.408,512.615 275.932,513.729 275.932,514.061C275.932,514.259 275.896,514.438 275.842,514.465C275.797,514.492 275.752,514.618 275.752,514.726C275.752,514.842 275.689,515.085 275.617,515.256C275.546,515.435 275.483,515.705 275.483,515.857C275.483,516.001 275.447,516.127 275.393,516.127C275.348,516.127 275.303,516.271 275.303,516.45C275.303,516.56 275.288,516.665 275.256,516.771C275.182,516.684 275.088,516.641 274.974,516.641C274.97,516.641 274.961,516.641 274.961,516.641C274.77,516.645 274.519,516.758 274.208,516.982C274.063,517.097 273.978,517.263 273.953,517.479C273.923,517.683 273.948,518.01 274.028,518.459C274.052,518.597 274.086,518.766 274.129,518.967L274.126,518.967L274.126,518.974C274.126,519.405 274.171,519.989 274.225,520.259C274.423,521.211 274.432,521.507 274.279,521.741C274.234,521.806 274.195,521.896 274.168,521.982L274.166,521.982C273.802,522.456 273.477,522.866 273.191,523.212C272.983,523.465 272.801,523.677 272.645,523.848L272.112,524.413C272.1,524.4 272.085,524.388 272.067,524.376L272.064,524.376C271.948,524.276 271.781,524.226 271.565,524.226L271.559,524.226L271.496,524.227C271.48,524.223 271.459,524.221 271.433,524.221C271.106,524.221 269.954,524.534 267.978,525.16C263.54,525.836 260.417,526.467 258.611,527.055C256.134,527.784 253.955,528.786 252.076,530.059C250.018,531.305 246.816,534.187 242.47,538.702L242.468,538.702C242.306,538.823 242.153,538.981 242.058,539.134L242.056,539.134C241.863,539.336 241.668,539.541 241.47,539.748C240.138,541.166 238.913,543.15 237.795,545.699L237.792,545.699C237.672,545.808 237.515,546.115 237.147,546.882C236.805,547.583 236.41,548.409 236.266,548.723C236.123,549.038 235.835,549.541 235.629,549.837C235.386,550.178 235.242,550.484 235.242,550.646C235.242,550.816 235.162,550.987 235.018,551.122C234.892,551.238 234.793,551.409 234.793,551.499C234.793,551.598 234.73,551.696 234.659,551.732C234.587,551.759 234.524,551.831 234.524,551.894C234.524,551.993 234.353,552.388 233.976,553.152C233.931,553.241 233.895,553.394 233.895,553.493C233.895,553.601 233.796,553.78 233.68,553.915C233.563,554.041 233.374,554.427 233.266,554.786C232.916,555.927 232.844,556.125 232.458,557.086C231.856,558.577 231.712,558.882 231.389,559.421C231.227,559.691 231.021,560.113 230.931,560.364C230.85,560.607 230.67,560.975 230.536,561.164C230.284,561.541 229.494,563.122 229.494,563.266C229.494,563.301 229.377,563.589 229.224,563.894C229.081,564.2 228.955,564.478 228.955,564.505C228.955,564.541 228.766,564.837 228.542,565.179C228.308,565.538 228.084,566.005 228.021,566.275C227.899,566.797 226.358,570.164 225.582,571.68L225.58,571.68C225.378,571.994 225.004,572.566 224.456,573.396C224.278,573.675 224.124,573.929 223.993,574.158C223.794,574.505 223.648,574.803 223.554,575.053L223.551,575.053C223.512,575.067 223.476,575.141 223.476,575.23C223.476,575.329 223.44,575.409 223.386,575.409C223.341,575.409 223.296,575.463 223.296,575.517C223.296,575.751 222.757,576.676 222.506,576.891C222.353,577.017 222.155,577.269 222.057,577.457C221.928,577.705 221.782,577.914 221.615,578.088L221.613,578.088C218.098,579.33 215.459,580.695 213.695,582.184C211.807,583.711 209.765,585.965 207.57,588.948L207.568,588.948C206.511,589.171 205.697,589.401 205.126,589.636C204.277,589.966 203.546,590.422 202.934,591.003C201.651,592.218 200.677,594.055 200.012,596.511L200.01,596.511C199.726,597.069 199.506,597.723 199.179,598.943C199.017,599.563 198.739,600.389 198.568,600.784C198.164,601.7 198.065,602.14 198.056,602.985C198.056,603.362 198.02,603.703 197.975,603.748C197.858,603.865 198.011,605.078 198.137,605.122C198.191,605.141 198.236,605.194 198.236,605.239C198.236,605.509 199.475,606.757 199.736,606.757C199.79,606.757 199.879,606.82 199.942,606.892C200.005,606.964 200.122,607.027 200.203,607.027C200.293,607.027 200.535,607.108 200.742,607.215C200.957,607.314 201.281,607.422 201.46,607.449C201.64,607.476 201.838,607.548 201.909,607.602C201.99,607.665 202.52,607.7 203.356,607.7L204.676,607.7L204.936,607.395C205.206,607.072 205.224,607.018 205.413,605.275C205.466,604.781 205.547,604.296 205.592,604.197C205.637,604.098 205.709,603.73 205.763,603.389C205.808,603.039 205.898,602.581 205.96,602.356C206.014,602.132 206.095,601.664 206.14,601.305C206.185,600.901 206.275,600.569 206.392,600.407C206.49,600.272 206.598,599.985 206.625,599.787C206.697,599.383 206.679,599.392 207.541,599.248C207.748,599.212 207.838,599.122 207.919,598.907C207.981,598.745 208.026,598.539 208.026,598.431C208.026,598.332 208.116,598.206 208.233,598.143C208.493,598.009 208.655,597.658 208.718,597.101C208.763,596.697 209.149,595.988 209.499,595.664C209.553,595.61 209.823,595.314 210.092,594.991C210.362,594.676 210.667,594.326 210.766,594.227C211.107,593.886 211.278,593.482 211.17,593.284C211.116,593.185 210.99,593.104 210.901,593.104C210.809,593.104 210.756,593.071 210.733,592.994L210.731,592.994C213.14,591.173 216.11,589.171 219.641,586.987C221.254,586.014 222.622,585.258 223.743,584.72C224.254,584.474 224.731,584.266 225.175,584.094L227.324,583.331C227.696,583.175 228.016,583.009 228.283,582.834C228.642,582.616 229.091,582.246 229.629,581.725L229.631,581.725C232.495,582.215 235.407,582.565 238.367,582.776L246.087,573.881L246.085,573.881C246.23,573.874 246.257,573.839 246.231,573.718L246.229,573.718L251.765,567.339L251.768,567.339C251.922,567.372 252.039,567.458 252.039,567.55C252.039,567.622 252.129,567.748 252.246,567.837C252.354,567.927 252.569,568.161 252.713,568.358C252.857,568.556 253.108,568.852 253.27,569.014C253.431,569.185 253.566,569.373 253.566,569.436C253.566,569.499 253.791,569.787 254.06,570.074C254.33,570.37 254.554,570.64 254.554,570.694C254.554,570.739 254.662,570.882 254.779,570.999C254.904,571.116 255.003,571.26 255.003,571.332C255.003,571.403 255.066,571.457 255.138,571.457C255.21,571.457 255.273,571.493 255.273,571.538C255.273,571.664 255.668,572.257 255.749,572.266C255.91,572.266 256.431,572.876 256.494,573.119C256.53,573.254 256.629,573.388 256.71,573.406C256.8,573.433 256.916,573.55 256.979,573.667C257.051,573.784 257.132,573.882 257.168,573.882C257.204,573.882 257.357,574.08 257.5,574.323C257.653,574.565 257.904,574.897 258.075,575.068C258.461,575.463 258.955,576.047 258.955,576.092C258.955,576.119 259.063,576.245 259.189,576.38C259.315,576.514 259.476,576.73 259.548,576.865C259.62,577.008 259.719,577.116 259.764,577.116C259.809,577.116 259.863,577.188 259.89,577.269C259.917,577.359 260.078,577.592 260.258,577.79C260.429,577.987 260.572,578.185 260.572,578.23C260.572,578.266 260.671,578.383 260.797,578.481C260.923,578.58 261.021,578.697 261.021,578.751C261.021,578.805 261.093,578.895 261.174,578.957C261.23,578.998 261.308,579.017 261.4,579.017C261.637,579.017 261.968,578.892 262.252,578.679C262.405,578.562 262.575,578.463 262.629,578.463C262.683,578.463 262.728,578.418 262.728,578.374C262.728,578.32 262.791,578.284 262.863,578.284C262.944,578.284 263.024,578.221 263.051,578.149C263.087,578.077 263.159,578.014 263.213,578.014C263.276,578.014 263.42,577.915 263.536,577.79C263.653,577.664 263.788,577.565 263.842,577.565C263.896,577.565 264.048,577.466 264.183,577.341C264.318,577.215 264.462,577.116 264.506,577.116C264.56,577.116 264.614,577.053 264.65,576.981C264.677,576.909 264.767,576.847 264.857,576.847C264.947,576.847 265.099,576.748 265.189,576.622C265.279,576.496 265.405,576.397 265.459,576.397C265.512,576.397 265.665,576.299 265.8,576.173C265.935,576.047 266.069,575.948 266.096,575.948C266.123,575.948 266.258,575.85 266.393,575.724C266.527,575.598 266.662,575.499 266.707,575.499C266.743,575.499 266.869,575.4 266.986,575.275C267.102,575.149 267.228,575.05 267.264,575.05C267.345,575.05 268.153,574.484 268.189,574.394C268.207,574.359 268.279,574.332 268.351,574.332C268.423,574.332 268.477,574.287 268.477,574.242C268.477,574.188 268.53,574.152 268.593,574.152C268.665,574.152 268.944,573.99 269.222,573.793C269.257,573.767 269.291,573.743 269.324,573.721L269.326,573.721C268.884,576.808 268.601,579.268 268.477,581.102C268.428,581.819 268.4,582.557 268.393,583.316C268.381,583.46 268.396,584.735 268.438,587.143C268.441,587.745 268.431,588.351 268.409,588.963C268.383,589.647 268.34,590.352 268.28,591.077C268.27,591.274 268.142,592.67 267.897,595.266L267.781,596.774C267.761,597.108 267.748,597.403 267.743,597.66L267.74,597.66C267.603,597.685 267.395,597.685 267.021,597.685C266.294,597.685 266.159,597.712 266.024,597.865C265.863,598.063 265.809,598.584 265.962,598.584C266.015,598.584 266.051,598.655 266.051,598.754C266.051,598.844 266.114,598.97 266.186,599.033C266.258,599.095 266.321,599.203 266.321,599.266C266.321,599.338 266.366,599.392 266.411,599.392C266.635,599.392 266.483,600.811 266.186,601.503C266.123,601.646 266.024,602.113 265.962,602.536C265.899,602.958 265.8,603.542 265.728,603.838C265.665,604.134 265.584,604.664 265.548,605.024C265.503,605.545 265.459,605.67 265.324,605.706C265.18,605.742 265.153,605.841 265.153,606.281C265.153,606.569 265.108,607.126 265.054,607.53C264.929,608.401 265.036,608.689 265.575,608.967C265.764,609.057 265.935,609.165 265.962,609.191C265.989,609.218 266.258,609.272 266.572,609.299C266.887,609.335 267.21,609.398 267.309,609.452C267.399,609.497 267.767,609.542 268.108,609.542C268.459,609.542 268.818,609.578 268.908,609.623C269.042,609.694 270.004,609.847 271.081,609.955C271.306,609.982 271.566,610.036 271.665,610.072C272.016,610.224 272.968,610.44 273.264,610.44C273.426,610.44 273.605,610.485 273.668,610.548C273.722,610.602 274.108,610.665 274.513,610.691C274.926,610.71 275.303,610.763 275.357,610.808C275.411,610.853 275.815,610.898 276.255,610.898C276.695,610.898 277.297,610.961 277.594,611.033C277.97,611.12 278.701,611.163 279.373,611.163C280.08,611.163 280.721,611.116 280.818,611.024C280.89,610.952 281.052,610.889 281.177,610.889C281.303,610.889 281.411,610.844 281.411,610.799C281.411,610.745 281.465,610.71 281.528,610.71C281.591,610.71 281.743,610.602 281.851,610.467C282.04,610.26 282.058,610.171 282.004,609.641C281.968,609.254 281.905,609.03 281.815,608.985C281.743,608.94 281.68,608.832 281.68,608.742C281.68,608.644 281.618,608.554 281.546,608.518C281.474,608.491 281.411,608.383 281.411,608.284C281.411,608.185 281.348,608.078 281.276,608.051C281.204,608.015 281.141,607.916 281.141,607.826C281.141,607.736 281.097,607.656 281.034,607.656C280.917,607.656 280.261,607.233 280.109,607.063C280.064,607.009 279.776,606.766 279.48,606.533C278.842,606.021 277.971,605.257 277.037,604.377C276.435,603.82 275.986,603.245 275.573,602.527C275.501,602.401 275.222,601.943 274.953,601.503C274.674,601.054 274.513,600.694 274.558,600.658C274.611,600.631 274.674,600.057 274.701,599.392C274.728,598.691 274.827,597.856 274.935,597.416C275.114,596.634 275.213,594.946 275.096,594.739C275.052,594.685 274.908,594.631 274.755,594.631C274.477,594.631 274.432,594.524 274.576,594.164C274.773,593.67 274.944,592.97 274.944,592.691C274.944,592.521 274.98,592.314 275.034,592.224C275.079,592.143 275.195,591.604 275.294,591.038C275.599,589.269 275.914,587.886 276.201,587.041C276.354,586.592 276.597,585.604 276.74,584.841C276.875,584.077 277.064,583.278 277.135,583.062C277.216,582.847 277.315,582.173 277.369,581.571C277.414,580.96 277.504,580.35 277.558,580.206C277.611,580.044 277.674,578.975 277.701,577.475C277.719,576.119 277.773,574.924 277.818,574.826C277.953,574.52 278.007,574.071 278.079,572.661C278.123,571.915 278.204,571.215 278.258,571.116C278.393,570.864 278.384,568.287 278.249,567.514C278.168,567.029 278.097,566.867 277.827,566.598C277.157,565.928 276.852,565.508 276.841,565.245L276.844,565.245C276.878,565.259 276.912,565.274 276.946,565.289C277.667,565.617 279.783,566.482 283.292,567.883C283.825,568.104 284.234,568.292 284.519,568.446C284.805,568.598 285.074,568.772 285.325,568.969L286.941,570.357C287.241,570.602 287.548,570.832 287.864,571.046C288.486,571.468 289.3,571.945 290.306,572.476L290.303,572.476C290.303,572.481 290.303,572.486 290.303,572.49C290.303,572.562 290.151,572.625 289.881,572.652C289.279,572.715 288.597,572.894 288.597,572.993C288.597,573.038 288.525,573.074 288.444,573.074C288.228,573.074 287.672,573.281 287.537,573.406C287.474,573.469 287.375,573.523 287.33,573.523C286.998,573.523 284.77,575.365 284.519,575.841C284.447,575.975 284.303,576.182 284.204,576.299C284.097,576.415 284.016,576.568 284.016,576.622C284.016,576.685 283.953,576.757 283.881,576.793C283.809,576.82 283.746,576.9 283.746,576.981C283.746,577.053 283.71,577.116 283.657,577.116C283.612,577.116 283.567,577.17 283.567,577.242C283.567,577.305 283.504,577.412 283.432,577.475C283.36,577.538 283.297,577.646 283.297,577.727C283.297,577.799 283.198,577.987 283.091,578.14C282.785,578.535 282.597,579.191 282.381,580.529C282.228,581.517 282.3,584.104 282.489,584.347C282.525,584.392 282.579,584.589 282.615,584.769C282.65,584.958 282.713,585.11 282.758,585.11C282.812,585.11 282.848,585.227 282.848,585.371C282.848,585.523 282.884,585.658 282.929,585.694C283.055,585.766 283.297,586.278 283.297,586.458C283.297,586.547 283.36,586.637 283.432,586.673C283.504,586.7 283.567,586.763 283.567,586.817C283.567,586.871 283.665,587.023 283.791,587.158C283.917,587.293 284.016,587.446 284.016,587.508C284.016,587.562 284.115,587.688 284.24,587.787C284.366,587.886 284.465,587.993 284.465,588.029C284.465,588.101 285.408,589.062 285.48,589.062C285.498,589.062 285.722,589.26 285.983,589.512C286.243,589.754 286.504,589.961 286.567,589.961C286.639,589.961 286.737,590.023 286.8,590.095C286.863,590.167 286.989,590.23 287.079,590.23C287.178,590.23 287.249,590.275 287.249,590.32C287.249,590.473 288.749,591.128 289.082,591.128C289.19,591.128 289.324,591.173 289.378,591.227C289.57,591.419 290.811,591.518 292.015,591.518C293.178,591.518 294.307,591.426 294.426,591.236C294.453,591.191 294.624,591.128 294.794,591.101C295.208,591.038 295.782,590.832 295.782,590.751C295.782,590.706 295.836,590.679 295.908,590.679C296.07,590.679 296.591,590.392 296.591,590.293C296.591,590.257 296.672,590.23 296.771,590.23C296.986,590.23 297.66,589.781 297.669,589.619C297.669,589.565 297.714,589.512 297.759,589.512C298.082,589.512 300.004,587.41 300.004,587.059C300.004,587.014 300.103,586.853 300.229,586.691C300.354,586.529 300.453,586.332 300.453,586.26C300.453,586.098 300.714,585.559 300.866,585.398C300.929,585.344 301.082,584.958 301.208,584.553C301.387,583.987 301.441,583.637 301.441,582.972C301.441,581.832 301.19,579.712 301.028,579.532C300.956,579.451 300.902,579.218 300.911,578.993C300.92,578.553 300.813,578.203 300.597,578.023C300.516,577.96 300.453,577.844 300.453,577.781C300.453,577.709 300.354,577.493 300.229,577.296C299.95,576.847 299.941,576.559 300.22,576.263C300.399,576.065 300.426,575.984 300.354,575.823C300.301,575.706 300.139,575.544 299.995,575.463C299.824,575.365 299.708,575.203 299.672,575.041C299.636,574.843 298.989,574.134 297.291,572.427C296.016,571.134 294.902,569.966 294.83,569.831C294.678,569.526 294.13,569.14 293.303,568.745C292.962,568.592 292.477,568.331 292.235,568.179C291.983,568.017 291.615,567.819 291.426,567.739C291.229,567.649 290.824,567.469 290.528,567.325C290.231,567.182 289.827,567.02 289.63,566.957C289.288,566.849 288.776,566.4 288.776,566.203C288.767,566.023 287.914,565.287 287.519,565.125C287.025,564.918 286.441,564.541 286.441,564.442C286.441,564.397 286.36,564.361 286.261,564.361C286.163,564.361 286.055,564.298 286.028,564.227C285.992,564.155 285.92,564.092 285.866,564.092C285.803,564.092 285.704,563.993 285.651,563.867C285.525,563.589 284.124,562.556 283.028,561.936C282.561,561.676 282.076,561.37 281.95,561.262C281.824,561.146 281.609,560.993 281.456,560.921C281.312,560.849 281.07,560.661 280.926,560.508C280.773,560.355 280.612,560.23 280.558,560.23C280.495,560.23 280.378,560.149 280.279,560.041C280.189,559.933 279.875,559.726 279.579,559.583C279.255,559.421 278.734,559.008 278.204,558.496C277.746,558.047 277.225,557.598 277.064,557.499C276.902,557.391 276.48,556.987 276.129,556.583C275.492,555.855 274.953,555.379 274.773,555.379C274.719,555.379 274.674,555.316 274.674,555.244C274.674,555.182 274.611,555.083 274.54,555.038C274.459,555.002 273.992,554.571 273.498,554.086C272.716,553.331 272.537,553.089 272.096,552.253C271.531,551.166 271.539,551.238 271.665,549.047C271.737,547.906 271.746,547.879 272.051,547.43C272.231,547.187 272.555,546.72 272.77,546.397C272.995,546.074 273.345,545.589 273.551,545.319C274.153,544.52 274.764,543.621 274.764,543.523C274.764,543.478 274.89,543.433 275.043,543.433C275.062,543.433 275.08,543.433 275.098,543.434L275.095,543.434C275.798,544.814 276.575,546.408 277.427,548.216C277.708,548.779 277.988,549.308 278.266,549.802C279.022,551.141 279.759,552.175 280.478,552.903C281.819,554.267 283.376,554.949 285.149,554.949C285.277,554.949 285.406,554.945 285.536,554.938L285.539,554.938C285.946,554.955 286.44,554.968 287.061,554.984C287.512,554.997 287.871,555.004 288.169,555.004C288.861,555.004 289.226,554.967 289.666,554.885C290.088,554.795 290.483,554.696 290.528,554.661C290.582,554.625 290.797,554.571 291.022,554.544C291.561,554.481 292.432,554.274 292.513,554.184C292.549,554.149 292.693,554.122 292.836,554.122C292.98,554.122 293.24,554.059 293.42,553.987C293.591,553.915 293.878,553.852 294.04,553.852C294.211,553.852 294.345,553.807 294.345,553.762C294.345,553.708 294.444,553.673 294.561,553.673C294.678,553.673 294.821,553.61 294.884,553.538C294.947,553.457 295.145,553.403 295.36,553.403C295.738,553.403 296.779,553.655 296.86,553.771C296.95,553.897 297.606,554.122 297.902,554.122C298.064,554.122 298.226,554.158 298.253,554.211C298.28,554.256 298.414,554.301 298.549,554.301C299.088,554.301 299.196,554.382 299.196,554.786C299.196,555.253 299.474,555.559 299.887,555.559C300.166,555.559 300.274,555.433 300.274,555.101C300.274,554.984 300.336,554.93 300.48,554.93C300.821,554.93 300.929,555.074 301.001,555.604C301.082,556.215 301.271,556.457 301.675,556.457C301.881,556.457 301.98,556.502 302.025,556.628C302.069,556.771 302.276,556.871 302.456,556.871C302.536,556.871 302.611,556.851 302.663,556.807C302.816,556.682 302.825,556.403 302.69,556.313C302.618,556.277 302.609,555.972 302.654,555.343C302.708,554.472 302.708,554.427 302.501,554.202C302.295,553.978 301.863,553.107 301.747,552.684C301.684,552.442 301.163,551.607 300.857,551.247C300.75,551.122 300.615,550.825 300.552,550.574C300.498,550.331 300.426,550.116 300.408,550.098C300.39,550.08 300.184,550.017 299.941,549.954C299.555,549.855 299.51,549.819 299.483,549.568C299.438,549.074 299.205,548.966 298.082,548.894C296.474,548.804 295.603,548.714 295.603,548.651C295.603,548.616 295.441,548.499 295.244,548.382C295.046,548.274 294.884,548.148 294.884,548.095C294.884,548.05 294.732,548.014 294.534,548.014C294.238,548.014 294.148,548.068 293.941,548.337C293.806,548.508 293.672,548.822 293.645,549.02L293.6,549.388L292.738,549.325C292.261,549.298 291.211,549.244 290.393,549.217C289.315,549.181 288.785,549.119 288.462,549.002C288.219,548.921 287.851,548.822 287.654,548.786C287.456,548.75 287.133,548.669 286.935,548.607C286.477,548.454 285.758,548.283 285.579,548.283C285.498,548.283 285.21,548.22 284.941,548.139C284.573,548.032 284.411,547.933 284.303,547.744C284.222,547.6 284.088,547.466 283.998,547.448C283.917,547.421 283.782,547.25 283.701,547.062C283.621,546.873 283.486,546.63 283.387,546.532C283.297,546.433 283.162,546.145 283.082,545.903C282.884,545.256 282.372,543.855 282.067,543.074C281.734,542.265 281.402,541.654 280.962,541.053C280.531,540.469 280.477,540.208 280.495,538.852C280.504,538.232 280.477,537.424 280.432,537.055C280.315,536.166 280.1,534.9 280.019,534.675C279.875,534.28 279.695,533.921 279.615,533.867C279.561,533.84 279.525,533.741 279.525,533.66C279.525,533.579 279.462,533.391 279.39,533.247C279.335,533.144 279.285,533.003 279.265,532.903L279.262,532.903C279.436,532.711 279.628,532.465 279.836,532.166C280.164,531.708 280.647,530.925 281.285,529.818L281.282,529.818C281.389,529.654 281.482,529.498 281.542,529.374L281.539,529.374C281.541,529.372 281.542,529.369 281.544,529.367L281.546,529.367C281.671,529.106 282.094,528.612 282.201,528.612C282.246,528.612 282.336,528.549 282.399,528.477C282.462,528.406 282.606,528.343 282.722,528.343C282.839,528.343 282.938,528.298 282.938,528.253C282.938,528.199 283.073,528.163 283.243,528.163C283.405,528.163 283.594,528.1 283.657,528.028C283.719,527.956 283.818,527.894 283.881,527.894C284.052,527.894 284.555,527.624 284.555,527.525C284.555,527.48 284.609,527.444 284.68,527.444C284.815,527.444 285.309,526.807 285.57,526.322C285.785,525.9 285.992,525.406 285.992,525.298C285.992,525.244 286.028,525.127 286.073,525.037C286.288,524.597 286.414,524.022 286.378,523.663C286.342,523.358 286.405,523.07 286.648,522.414C286.89,521.732 286.971,521.346 287.043,520.51C287.106,519.639 287.16,519.405 287.321,519.181C287.474,518.983 287.519,518.795 287.519,518.444C287.492,515.678 287.51,515.247 287.654,515.202C287.725,515.166 287.788,515.058 287.788,514.959C287.788,514.86 287.833,514.78 287.887,514.78C288.004,514.78 288.237,514.555 288.237,514.438C288.237,514.384 288.3,514.33 288.372,514.294C288.444,514.268 288.507,514.187 288.507,514.106C288.507,514.034 288.561,513.89 288.615,513.792C288.704,513.648 288.704,513.576 288.615,513.432C288.561,513.333 288.507,513.199 288.507,513.118C288.507,513.046 288.426,512.947 288.327,512.893C288.228,512.839 288.094,512.687 288.022,512.552C287.95,512.417 287.743,512.157 287.573,511.968C287.393,511.779 287.249,511.591 287.249,511.537C287.249,511.492 287.187,511.456 287.115,511.456C287.034,511.456 286.881,511.366 286.773,511.25C286.558,511.025 286.037,510.738 285.839,510.738C285.776,510.738 285.722,510.702 285.722,510.666C285.722,510.621 285.588,510.522 285.435,510.441C284.77,510.127 284.097,509.839 283.989,509.839C283.926,509.839 283.818,509.785 283.764,509.732C283.684,509.651 282.879,509.592 282.209,509.592Z" style="fill-rule:nonzero;"/>
            </g>
        </g>
    </g>
</svg>
